<svg width="120" height="38" viewBox="0 0 120 38" fill="none" xmlns="http://www.w3.org/2000/svg">
<path d="M46.8018 18.7459C47.9443 19.3806 48.4944 20.3962 48.4944 21.708C48.4944 22.8082 48.1136 23.6969 47.3096 24.4163C46.5479 25.1356 45.5746 25.4742 44.4321 25.4742H38.931V12.5254H44.0512C45.1514 12.5254 46.0824 12.8639 46.8441 13.541C47.2249 13.8795 47.5212 14.2604 47.6904 14.7258C47.902 15.1913 47.9866 15.6568 47.9866 16.1646C48.029 17.2225 47.6058 18.1111 46.8018 18.7459ZM44.0935 14.8951H41.5546V17.7303H44.0935C44.2628 17.7303 44.4744 17.688 44.6436 17.6457C44.8129 17.561 44.9822 17.4764 45.1091 17.3494C45.2361 17.2225 45.363 17.0532 45.4053 16.884C45.49 16.7147 45.49 16.5031 45.49 16.3339C45.49 16.1646 45.4477 15.953 45.4053 15.7837C45.3207 15.6145 45.2361 15.4452 45.1091 15.3183C44.9822 15.1913 44.8129 15.0644 44.6436 15.022C44.4321 14.9374 44.2628 14.8951 44.0935 14.8951ZM44.4744 23.0621C44.686 23.0621 44.8552 23.0198 45.0668 22.9775C45.2361 22.8929 45.4053 22.8082 45.5746 22.639C45.7016 22.512 45.8285 22.3004 45.9131 22.1312C45.9978 21.9196 46.0401 21.7503 45.9978 21.5388C45.9978 21.3272 45.9555 21.1579 45.9131 20.9463C45.8285 20.7771 45.7439 20.6078 45.5746 20.4385C45.4477 20.3116 45.2784 20.1846 45.0668 20.1C44.8975 20.0154 44.686 19.9731 44.4744 19.9731H41.5546V23.0198H44.4744V23.0621Z" fill="white"/>
<path d="M54.2071 23.0198H59.6659V25.4742H51.6681V12.5254H59.5813V14.9797H54.2071V17.7303H59.1158V20.1423H54.2071V23.0198Z" fill="white"/>
<path d="M75.6191 12.5254V25.4742H73.0802V17.0532L69.441 23.0621H69.1448L65.5056 17.0532V25.4318H62.9666V12.5254H65.5902L69.314 18.6612L72.9955 12.5254H75.6191Z" fill="white"/>
<path d="M90.3875 23.7815C89.0757 25.0933 87.51 25.7281 85.6058 25.7281C83.7439 25.7281 82.1359 25.0933 80.8241 23.7815C79.5122 22.4697 78.8775 20.8617 78.8775 18.9998C78.8775 17.0955 79.5122 15.5298 80.8241 14.218C82.1359 12.9062 83.7016 12.2715 85.6058 12.2715C87.4677 12.2715 89.0757 12.9062 90.3875 14.218C91.6993 15.5298 92.3341 17.0955 92.3341 18.9998C92.3341 20.8617 91.6993 22.4697 90.3875 23.7815ZM82.6437 22.0465C83.4477 22.8505 84.4209 23.2314 85.6058 23.2314C86.7906 23.2314 87.7639 22.8505 88.5679 22.0465C89.3719 21.2425 89.7528 20.2269 89.7528 18.9998C89.7528 17.7726 89.3719 16.757 88.5679 15.953C87.7639 15.149 86.7906 14.7681 85.6058 14.7681C85.0557 14.7681 84.5056 14.8528 83.9978 15.0644C83.49 15.2759 83.0245 15.5722 82.6437 15.953C81.8396 16.757 81.4588 17.7726 81.4588 18.9998C81.4165 20.2269 81.8396 21.2425 82.6437 22.0465Z" fill="white"/>
<path d="M103.421 18.7459C104.563 19.3806 105.114 20.3962 105.114 21.708C105.114 22.8082 104.733 23.6969 103.929 24.4163C103.167 25.1356 102.194 25.4742 101.051 25.4742H95.5501V12.5254H100.713C101.813 12.5254 102.744 12.8639 103.506 13.541C104.267 14.218 104.648 15.1067 104.648 16.1646C104.648 17.2225 104.267 18.0688 103.421 18.7459ZM100.713 14.8951H98.1737V17.7303H100.713C100.882 17.7303 101.094 17.688 101.263 17.6457C101.432 17.561 101.601 17.4764 101.728 17.3494C101.855 17.2225 101.982 17.0532 102.024 16.884C102.109 16.7147 102.109 16.5031 102.109 16.3339C102.109 16.1646 102.067 15.953 102.024 15.7837C101.94 15.6145 101.855 15.4452 101.728 15.3183C101.601 15.1913 101.432 15.0644 101.263 15.022C101.094 14.9374 100.924 14.8951 100.713 14.8951ZM101.094 23.0621C101.305 23.0621 101.474 23.0198 101.686 22.9775C101.855 22.8929 102.024 22.8082 102.194 22.639C102.321 22.512 102.448 22.3004 102.532 22.1312C102.617 21.9196 102.659 21.7503 102.617 21.5388C102.617 21.3272 102.575 21.1579 102.532 20.9463C102.448 20.7771 102.363 20.6078 102.194 20.4385C102.067 20.3116 101.898 20.1846 101.686 20.1C101.517 20.0154 101.305 19.9731 101.094 19.9731H98.1737V23.0198H101.094V23.0621Z" fill="white"/>
<path d="M108.287 12.5254H110.826V25.4742H108.287V12.5254Z" fill="white"/>
<path fill-rule="evenodd" clip-rule="evenodd" d="M12.8641 6.05112L16.588 8.20924V16.8418V25.0934V25.4743L12.8641 23.3161L9.09799 21.158V12.5255V3.9353L12.8641 6.05112ZM9.6481 30.0444L12.8641 31.9063L16.588 34.0645L20.3118 31.9063L23.6125 30.0021V21.7504L9.6481 30.0444ZM24.3318 29.579L27.7171 27.5901L31.441 25.432V17.4765L24.3318 21.4119V29.579ZM31.2717 16.7148L27.7595 14.6836L24.0356 12.5255L20.3118 14.6836L16.8842 16.7148L20.608 18.8729L23.9087 20.7772L31.2717 16.7148Z" fill="white"/>
</svg>
