<svg width="284" height="90" viewBox="0 0 284 90" fill="none" xmlns="http://www.w3.org/2000/svg">
<path fill-rule="evenodd" clip-rule="evenodd" d="M76.4 59.8L59.1 49.8V69.7L76.4 59.8Z" fill="#0060F1"/>
<path fill-rule="evenodd" clip-rule="evenodd" d="M59.2 69.8L42 79.7V59.8L59.2 69.8Z" fill="#459EF4"/>
<path fill-rule="evenodd" clip-rule="evenodd" d="M41.8999 59.8L59.0999 49.8V69.7L41.8999 59.8Z" fill="#027BFF"/>
<path fill-rule="evenodd" clip-rule="evenodd" d="M24.7 69.8L42 59.8V79.7L24.7 69.8Z" fill="#64BAFF"/>
<path fill-rule="evenodd" clip-rule="evenodd" d="M24.7 30L42 20V39.9L24.7 30Z" fill="#9185F5"/>
<path fill-rule="evenodd" clip-rule="evenodd" d="M41.9 20L24.7 10V30L41.9 20Z" fill="#A69DF7"/>
<path fill-rule="evenodd" clip-rule="evenodd" d="M41.9 39.9L24.7 30V49.9L41.9 39.9Z" fill="#7D61FA"/>
<path fill-rule="evenodd" clip-rule="evenodd" d="M59.2 30L42 40L59.2 49.9V30Z" fill="#0500FF"/>
<path fill-rule="evenodd" clip-rule="evenodd" d="M59.2 49.9L76.5 39.9V59.8L59.2 49.9Z" fill="#0053FF"/>
<path fill-rule="evenodd" clip-rule="evenodd" d="M76.4 39.9L59.2 30V49.9L76.4 39.9Z" fill="#062EFE"/>
<path fill-rule="evenodd" clip-rule="evenodd" d="M24.7 49.9L42 40V59.9L24.7 49.9Z" fill="#6924F2"/>
<path d="M112.7 44.5C115.4 46 116.7 48.3 116.7 51.4C116.7 54 115.8 56.1 114 57.7C112.2 59.3 110 60.2 107.3 60.2H94.3999V30H106.3C108.9 30 111.1 30.8 112.8 32.4C113.7 33.2 114.4 34.1 114.8 35.1C115.3 36.2 115.5 37.3 115.5 38.4C115.5 41 114.6 43 112.7 44.5ZM106.3 35.6H100.3V42.2H106.3C106.7 42.2 107.2 42.1 107.5 42C107.9 41.8 108.2 41.6 108.5 41.3C108.8 41 109.1 40.6 109.2 40.2C109.4 39.8 109.4 39.4 109.4 38.9C109.4 38.5 109.3 38 109.2 37.6C109 37.2 108.8 36.8 108.5 36.5C108.2 36.2 107.8 35.9 107.4 35.8C107.2 35.6 106.8 35.5 106.3 35.6ZM107.2 54.6C107.7 54.6 108.1 54.5 108.6 54.4C109 54.2 109.4 54 109.8 53.6C110.1 53.3 110.4 52.8 110.6 52.4C110.8 52 110.8 51.5 110.8 51C110.8 50.5 110.7 50.1 110.6 49.6C110.4 49.2 110.2 48.8 109.8 48.4C109.5 48.1 109.1 47.8 108.7 47.6C108.3 47.4 107.8 47.3 107.3 47.3H100.4V54.4H107.2V54.6Z" fill="#1D1D1B"/>
<path d="M130 54.5H142.7V60.2H124V30H142.5V35.7H130V42.1H141.4V47.7H130V54.5Z" fill="#1D1D1B"/>
<path d="M179.9 30V60.2H174V40.6L165.5 54.6H164.8L156.3 40.6V60.2H150.3V30H156.4L165.1 44.3L173.7 30H179.9Z" fill="#1D1D1B"/>
<path d="M214.4 56.3C211.3 59.3 207.6 60.8 203.3 60.8C198.9 60.8 195.2 59.3 192.2 56.3C189.2 53.2 187.7 49.5 187.7 45.1C187.7 40.7 189.2 37 192.2 34C195.3 31 199 29.4 203.3 29.4C207.7 29.4 211.4 30.9 214.4 34C217.5 37 219 40.7 219 45.1C219 49.5 217.5 53.2 214.4 56.3ZM196.4 52.2C198.3 54 200.6 55 203.4 55C206.2 55 208.5 54.1 210.4 52.2C212.3 50.3 213.2 48 213.2 45.1C213.2 42.2 212.3 39.8 210.4 38C208.5 36.1 206.2 35.2 203.4 35.2C202.1 35.2 200.8 35.4 199.6 35.9C198.4 36.4 197.3 37.1 196.4 38C194.5 39.9 193.6 42.2 193.6 45.1C193.5 48 194.5 50.4 196.4 52.2Z" fill="#1D1D1B"/>
<path d="M244.9 44.5C247.5 46 248.9 48.3 248.9 51.4C248.9 54 248 56.1 246.2 57.7C244.4 59.3 242.2 60.2 239.5 60.2H226.7V30H238.6C241.2 30 243.4 30.8 245.1 32.4C246.9 34 247.8 36 247.8 38.5C247.8 41 246.8 43 244.9 44.5ZM238.6 35.6H232.6V42.2H238.6C239 42.2 239.5 42.1 239.8 42C240.2 41.8 240.6 41.6 240.8 41.3C241.1 41 241.4 40.6 241.5 40.2C241.7 39.8 241.7 39.4 241.7 38.9C241.7 38.5 241.6 38 241.5 37.6C241.3 37.2 241.1 36.8 240.8 36.5C240.5 36.2 240.1 35.9 239.7 35.8C239.5 35.6 239 35.5 238.6 35.6ZM239.5 54.6C240 54.6 240.4 54.5 240.9 54.4C241.3 54.2 241.7 54 242 53.6C242.3 53.3 242.6 52.8 242.8 52.4C243 52 243.1 51.5 243 51C243 50.5 242.9 50.1 242.8 49.6C242.6 49.2 242.4 48.8 242 48.4C241.7 48.1 241.3 47.8 240.9 47.6C240.5 47.4 240 47.3 239.5 47.3H232.6V54.4H239.5V54.6Z" fill="#1D1D1B"/>
<path d="M256.3 30H262.3V60.2H256.3V30Z" fill="#1D1D1B"/>
</svg>
